<svg width="64" height="64" viewBox="0 0 64 64" fill="none" xmlns="http://www.w3.org/2000/svg">
<g clip-path="url(#clip0_33_44)">
<path d="M32 38.7725C35.3663 38.7725 38.0953 35.7403 38.0953 32C38.0953 28.2597 35.3663 25.2275 32 25.2275C28.6337 25.2275 25.9048 28.2597 25.9048 32C25.9048 35.7403 28.6337 38.7725 32 38.7725Z" fill="#087EA4"/>
<path d="M32 47.2381C48.8315 47.2381 62.4762 40.4158 62.4762 32C62.4762 23.5842 48.8315 16.7619 32 16.7619C15.1685 16.7619 1.5238 23.5842 1.5238 32C1.5238 40.4158 15.1685 47.2381 32 47.2381Z" stroke="#087EA4" stroke-width="3"/>
<path d="M20.123 39.619C28.5388 55.8152 40.6786 65.5336 47.2381 61.3257C53.7975 57.1178 52.2927 40.5771 43.8769 24.3809C35.4611 8.1848 23.3213 -1.53361 16.7619 2.67427C10.2024 6.88215 11.7073 23.4229 20.123 39.619Z" stroke="#087EA4" stroke-width="3"/>
<path d="M20.1231 24.3809C11.7073 40.5771 10.2024 57.1178 16.7619 61.3257C23.3213 65.5336 35.4611 55.8152 43.8769 39.619C52.2927 23.4229 53.7975 6.88216 47.2381 2.67427C40.6786 -1.53361 28.5388 8.1848 20.1231 24.3809Z" stroke="#087EA4" stroke-width="3"/>
</g>
<defs>
<clipPath id="clip0_33_44">
<rect width="64" height="64" fill="white"/>
</clipPath>
</defs>
</svg>
