<svg width="25" height="24" viewBox="0 0 25 24" fill="none" xmlns="http://www.w3.org/2000/svg">
<path d="M15.5 22V18C15.6391 16.7473 15.2799 15.4901 14.5 14.5C17.5 14.5 20.5 12.5 20.5 9C20.58 7.75 20.23 6.52 19.5 5.5C19.78 4.35 19.78 3.15 19.5 2C19.5 2 18.5 2 16.5 3.5C13.86 3 11.14 3 8.49998 3.5C6.49998 2 5.49998 2 5.49998 2C5.19998 3.15 5.19998 4.35 5.49998 5.5C4.77185 6.51588 4.41845 7.75279 4.49998 9C4.49998 12.5 7.49998 14.5 10.5 14.5C10.11 14.99 9.81998 15.55 9.64998 16.15C9.47998 16.75 9.42998 17.38 9.49998 18V22" stroke="black" stroke-width="2" stroke-linecap="round" stroke-linejoin="round"/>
<path d="M9.5 18C4.99 20 4.5 16 2.5 16" stroke="black" stroke-width="2" stroke-linecap="round" stroke-linejoin="round"/>
</svg>
