<svg width="43" height="64" viewBox="0 0 43 64" fill="none" xmlns="http://www.w3.org/2000/svg">
<g clip-path="url(#clip0_33_99)">
<path d="M21.5 32C21.5 29.171 22.6238 26.4579 24.6242 24.4575C26.6246 22.4572 29.3377 21.3333 32.1667 21.3333C34.9956 21.3333 37.7087 22.4572 39.7091 24.4575C41.7095 26.4579 42.8333 29.171 42.8333 32C42.8333 34.829 41.7095 37.5421 39.7091 39.5425C37.7087 41.5429 34.9956 42.6667 32.1667 42.6667C29.3377 42.6667 26.6246 41.5429 24.6242 39.5425C22.6238 37.5421 21.5 34.829 21.5 32Z" fill="#1ABCFE"/>
<path d="M0.166656 53.3333C0.166656 50.5043 1.29046 47.7912 3.29085 45.7909C5.29124 43.7905 8.00435 42.6667 10.8333 42.6667H21.5V53.3333C21.5 56.1623 20.3762 58.8754 18.3758 60.8758C16.3754 62.8762 13.6623 64 10.8333 64C8.00435 64 5.29124 62.8762 3.29085 60.8758C1.29046 58.8754 0.166656 56.1623 0.166656 53.3333Z" fill="#0ACF83"/>
<path d="M21.5 0V21.3333H32.1667C34.9956 21.3333 37.7087 20.2095 39.7091 18.2091C41.7095 16.2088 42.8333 13.4956 42.8333 10.6667C42.8333 7.83769 41.7095 5.12458 39.7091 3.12419C37.7087 1.12381 34.9956 0 32.1667 0L21.5 0Z" fill="#FF7262"/>
<path d="M0.166656 10.6667C0.166656 13.4956 1.29046 16.2088 3.29085 18.2091C5.29124 20.2095 8.00435 21.3333 10.8333 21.3333H21.5V0H10.8333C8.00435 0 5.29124 1.12381 3.29085 3.12419C1.29046 5.12458 0.166656 7.83769 0.166656 10.6667Z" fill="#F24E1E"/>
<path d="M0.166656 32C0.166656 34.829 1.29046 37.5421 3.29085 39.5425C5.29124 41.5429 8.00435 42.6667 10.8333 42.6667H21.5V21.3333H10.8333C8.00435 21.3333 5.29124 22.4572 3.29085 24.4575C1.29046 26.4579 0.166656 29.171 0.166656 32Z" fill="#A259FF"/>
</g>
<defs>
<clipPath id="clip0_33_99">
<rect width="42.6667" height="64" fill="white" transform="translate(0.166656)"/>
</clipPath>
</defs>
</svg>
