<svg width="65" height="64" viewBox="0 0 65 64" fill="none" xmlns="http://www.w3.org/2000/svg">
<path d="M63.1526 28.8L35.7 1.34737C34.8579 0.505263 33.6789 0 32.5 0C31.3211 0 30.1421 0.505263 29.3 1.34737L23.4053 7.24211L30.3105 14.1474C30.9842 13.8105 31.6579 13.6421 32.5 13.6421C35.3632 13.6421 37.5526 15.8316 37.5526 18.6947C37.5526 19.5368 37.3842 20.2105 37.0474 20.8842L43.7842 27.6211C44.4579 27.2842 45.1316 27.1158 45.9737 27.1158C48.8368 27.1158 51.0263 29.3053 51.0263 32.1684C51.0263 35.0316 48.8368 37.2211 45.9737 37.2211C43.1105 37.2211 40.9211 35.0316 40.9211 32.1684C40.9211 31.3263 41.0895 30.6526 41.4263 29.9789L34.6895 23.2421C34.5211 23.2421 34.3526 23.4105 34.1842 23.4105V40.9263C36.2053 41.6 37.5526 43.4526 37.5526 45.6421C37.5526 48.5053 35.3632 50.6947 32.5 50.6947C29.6368 50.6947 27.4474 48.5053 27.4474 45.6421C27.4474 43.4526 28.7947 41.6 30.8158 40.9263V23.2421C28.7947 22.5684 27.4474 20.7158 27.4474 18.5263C27.4474 17.6842 27.6158 17.0105 27.9526 16.3368L21.0474 9.43158L1.84737 28.8C1.00526 29.6421 0.5 30.8211 0.5 32C0.5 33.1789 1.00526 34.3579 1.84737 35.2L29.3 62.6526C30.1421 63.4947 31.3211 64 32.5 64C33.6789 64 34.8579 63.4947 35.7 62.6526L63.1526 35.2C63.9947 34.3579 64.5 33.1789 64.5 32C64.5 30.8211 63.9947 29.6421 63.1526 28.8Z" fill="#F4511E"/>
</svg>
