<svg width="65" height="64" viewBox="0 0 65 64" fill="none" xmlns="http://www.w3.org/2000/svg">
<g clip-path="url(#clip0_33_39)">
<path d="M61.6667 0H3.66669C2.00983 0 0.666687 1.34315 0.666687 3V61C0.666687 62.6569 2.00983 64 3.66669 64H61.6667C63.3235 64 64.6667 62.6569 64.6667 61V3C64.6667 1.34315 63.3235 0 61.6667 0Z" fill="#3178C6"/>
<path fill-rule="evenodd" clip-rule="evenodd" d="M37.7978 49.734V56.747C38.934 57.331 40.2777 57.7695 41.829 58.0615C43.3804 58.354 45.0154 58.5 46.7343 58.5C48.4094 58.5 50.0008 58.3395 51.5082 58.018C53.0162 57.6965 54.3377 57.167 55.4742 56.429C56.6102 55.691 57.5097 54.727 58.1727 53.536C58.8352 52.3455 59.1667 50.8735 59.1667 49.1203C59.1667 47.8493 58.9772 46.7353 58.5987 45.7783C58.2197 44.8214 57.6737 43.9704 56.9597 43.2252C56.2462 42.4801 55.3902 41.8117 54.3927 41.22C53.3947 40.6283 52.2697 40.0694 51.0167 39.5435C50.0991 39.1636 49.2761 38.7947 48.5478 38.4368C47.8194 38.0788 47.2004 37.7136 46.6906 37.341C46.1807 36.9684 45.7874 36.574 45.5107 36.1576C45.2339 35.7413 45.0955 35.27 45.0955 34.7441C45.0955 34.2619 45.2193 33.8273 45.467 33.4402C45.7146 33.053 46.0642 32.7206 46.5158 32.443C46.9673 32.1655 47.5208 31.95 48.1763 31.7966C48.8318 31.6431 49.5601 31.5664 50.3613 31.5664C50.9442 31.5664 51.5592 31.6103 52.2077 31.6979C52.8557 31.7856 53.5077 31.9207 54.1632 32.1034C54.8187 32.286 55.4557 32.5161 56.0752 32.7937C56.6942 33.0713 57.2657 33.3927 57.7902 33.7579V27.2054C56.7267 26.7963 55.5652 26.4931 54.3052 26.2959C53.0452 26.0986 51.5997 26 49.968 26C48.3074 26 46.7343 26.1789 45.2485 26.5369C43.7627 26.8948 42.4554 27.4537 41.3265 28.2134C40.1976 28.9731 39.3054 29.941 38.6499 31.1171C37.9944 32.2932 37.6667 33.6995 37.6667 35.3358C37.6667 37.4251 38.2675 39.2074 39.4693 40.683C40.671 42.1587 42.4954 43.4078 44.9426 44.4305C45.904 44.825 46.7998 45.2122 47.6301 45.592C48.4604 45.9719 49.1778 46.3664 49.7823 46.7755C50.3868 47.1846 50.8637 47.6302 51.2132 48.1123C51.5632 48.5944 51.7377 49.1423 51.7377 49.7559C51.7377 50.209 51.6287 50.629 51.4102 51.016C51.1917 51.403 50.8602 51.739 50.4159 52.024C49.9716 52.309 49.4181 52.532 48.7553 52.6925C48.0926 52.853 47.3169 52.9335 46.4284 52.9335C44.9134 52.9335 43.4131 52.667 41.9273 52.1335C40.4416 51.6005 39.0651 50.8005 37.7978 49.734ZM26.018 32.2772H35.1667V26.5H9.66669V32.2772H18.7706V58H26.018V32.2772Z" fill="white"/>
</g>
<defs>
<clipPath id="clip0_33_39">
<rect width="64" height="64" fill="white" transform="translate(0.666687)"/>
</clipPath>
</defs>
</svg>
