<svg width="65" height="64" viewBox="0 0 65 64" fill="none" xmlns="http://www.w3.org/2000/svg">
<path d="M53.656 34.608C51.6053 34.6187 49.8293 35.1107 48.3413 35.8453C47.7973 34.7587 47.2453 33.8027 47.1533 33.092C47.0453 32.2627 46.92 31.7667 47.0507 30.7787C47.1813 29.7907 47.7533 28.3907 47.7453 28.2853C47.7373 28.18 47.6173 27.6773 46.4347 27.668C45.252 27.66 44.24 27.896 44.1213 28.208C44.0027 28.52 43.7747 29.2227 43.6333 29.956C43.4267 31.028 41.272 34.8533 40.0493 36.8533C39.6493 36.072 39.3093 35.384 39.2387 34.84C39.1307 34.0107 39.0053 33.5147 39.136 32.5267C39.2667 31.5387 39.8387 30.1387 39.8307 30.0333C39.8227 29.928 39.7027 29.4253 38.52 29.416C37.3373 29.408 36.3253 29.644 36.2067 29.956C36.088 30.268 35.96 30.9973 35.7187 31.704C35.476 32.4093 32.6133 38.7893 31.8627 40.444C31.48 41.2867 31.148 41.964 30.9133 42.4253L30.912 42.4227C30.912 42.4227 30.8973 42.4533 30.8733 42.5053C30.672 42.8987 30.5533 43.116 30.5533 43.116C30.5533 43.116 30.5547 43.1187 30.5573 43.124C30.3973 43.4133 30.2267 43.6813 30.1427 43.6813C30.084 43.6813 29.9653 42.912 30.168 41.856C30.5947 39.6427 31.6173 36.192 31.608 36.072C31.6027 36.0107 31.7987 35.4093 30.94 35.0947C30.1053 34.7893 29.808 35.2987 29.732 35.3C29.6587 35.3013 29.604 35.48 29.604 35.48C29.604 35.48 30.5333 31.5987 27.8307 31.5987C26.14 31.5987 23.7987 33.448 22.6453 35.124C21.9173 35.5213 20.3587 36.372 18.7067 37.28C18.072 37.6293 17.424 37.9853 16.8093 38.324C16.768 38.2773 16.7253 38.232 16.6827 38.1853C13.404 34.688 7.34535 32.2147 7.60135 27.512C7.69468 25.8027 8.28935 21.3013 19.2453 15.8427C28.22 11.3707 35.4053 12.6013 36.6467 15.328C38.42 19.2253 32.8067 26.4667 23.4867 27.512C19.936 27.9107 18.0653 26.5333 17.6 26.0213C17.1107 25.4813 17.0373 25.4573 16.8547 25.5587C16.5573 25.724 16.7453 26.2 16.8547 26.484C17.1333 27.208 18.2747 28.492 20.2213 29.132C21.9347 29.6947 26.104 30.0027 31.1453 28.052C36.7933 25.868 41.2027 19.7907 39.9067 14.712C38.5893 9.54667 30.024 7.848 21.9173 10.728C17.0867 12.4427 11.864 15.1333 8.10801 18.6453C3.64268 22.8213 2.93068 26.4573 3.22401 27.976C4.26668 33.3733 11.7053 36.888 14.684 39.492C14.5373 39.5733 14.3987 39.6493 14.2733 39.7187C12.78 40.4573 7.10935 43.4253 5.69068 46.56C4.08135 50.116 5.94668 52.668 7.18135 53.012C11.0067 54.076 14.932 52.1613 17.0427 49.0147C19.152 45.8693 18.8947 41.772 17.9267 39.9027C17.9147 39.88 17.9013 39.8573 17.8893 39.8333C18.2747 39.6053 18.668 39.3733 19.0573 39.144C19.8173 38.6973 20.564 38.2813 21.2107 37.9293C20.848 38.9213 20.5827 40.112 20.4453 41.8307C20.2827 43.8493 21.1107 46.4587 22.1933 47.4853C22.6707 47.9373 23.244 47.948 23.6067 47.948C24.8667 47.948 25.4413 46.9 26.0747 45.66C26.8507 44.14 27.54 42.3693 27.54 42.3693C27.54 42.3693 26.676 47.1507 29.0307 47.1507C29.8893 47.1507 30.752 46.0373 31.1373 45.4707C31.1387 45.4773 31.1387 45.48 31.1387 45.48C31.1387 45.48 31.1613 45.4427 31.2053 45.3693C31.2947 45.2333 31.3453 45.1467 31.3453 45.1467C31.3453 45.1467 31.3467 45.1373 31.3493 45.1213C31.6947 44.5227 32.46 43.1573 33.6067 40.9053C35.0893 37.996 36.5107 34.3507 36.5107 34.3507C36.5107 34.3507 36.6427 35.2413 37.076 36.716C37.3307 37.5827 37.872 38.5413 38.3 39.4613C37.956 39.9387 37.7453 40.212 37.7453 40.212C37.7453 40.212 37.7467 40.2173 37.7507 40.2267C37.476 40.592 37.168 40.9853 36.8453 41.3693C35.6747 42.7627 34.2813 44.3547 34.0947 44.8133C33.8747 45.3547 33.9267 45.752 34.352 46.0733C34.6627 46.3067 35.2147 46.344 35.792 46.3053C36.844 46.2347 37.5827 45.9733 37.948 45.8147C38.5173 45.6133 39.18 45.2973 39.8013 44.84C40.9493 43.996 41.6413 42.7893 41.5747 41.1893C41.5373 40.308 41.2573 39.4347 40.9013 38.6107C41.0053 38.4613 41.1093 38.3093 41.2147 38.1573C43.024 35.512 44.428 32.6053 44.428 32.6053C44.428 32.6053 44.56 33.496 44.9933 34.9707C45.212 35.716 45.6453 36.5307 46.0347 37.328C44.3333 38.7107 43.2787 40.3173 42.912 41.3707C42.2347 43.32 42.7653 44.2027 43.76 44.404C44.2107 44.4947 44.848 44.288 45.3267 44.0853C45.9227 43.888 46.6387 43.5587 47.308 43.0667C48.456 42.2227 49.56 41.0413 49.4933 39.4427C49.4627 38.7147 49.2653 37.992 48.9973 37.2987C50.44 36.6973 52.3067 36.364 54.6853 36.6413C59.788 37.2373 60.788 40.4227 60.5973 41.756C60.4053 43.0893 59.336 43.8227 58.9773 44.044C58.62 44.2653 58.5107 44.3427 58.54 44.5067C58.584 44.7453 58.7493 44.7373 59.0547 44.6853C59.4747 44.6147 61.7333 43.6013 61.8307 41.14C61.952 38.012 58.9587 34.58 53.656 34.608ZM14.3267 47.8667C12.636 49.7107 10.276 50.4067 9.26268 49.82C8.16935 49.1867 8.60268 46.472 10.676 44.5147C11.94 43.3227 13.572 42.224 14.6547 41.548C14.9013 41.4 15.2627 41.1827 15.7027 40.9187C15.776 40.8773 15.8173 40.8547 15.8173 40.8547L15.816 40.852C15.9013 40.8013 15.988 40.7493 16.0773 40.6947C16.8333 43.48 16.1013 45.932 14.3267 47.8667ZM26.64 39.4973C26.052 40.932 24.82 44.604 24.0693 44.4067C23.4253 44.2373 23.0333 41.4467 23.9413 38.7C24.3973 37.3173 25.3733 35.6653 25.9467 35.024C26.8693 33.992 27.8853 33.6547 28.132 34.0733C28.4453 34.6067 27.0093 38.5973 26.64 39.4973ZM36.812 44.3507C36.5627 44.4813 36.3333 44.5627 36.228 44.5C36.1493 44.4533 36.3307 44.2813 36.3307 44.2813C36.3307 44.2813 37.6027 42.912 38.104 42.2893C38.396 41.9267 38.7333 41.496 39.1013 41.016C39.104 41.064 39.1053 41.112 39.1053 41.1587C39.1027 42.7987 37.5187 43.9053 36.812 44.3507ZM44.648 42.564C44.4613 42.432 44.4933 42.004 45.1053 40.6693C45.3453 40.1453 45.8947 39.264 46.8467 38.4213C46.9573 38.768 47.024 39.1 47.0227 39.4093C47.0107 41.4733 45.5387 42.244 44.648 42.564Z" fill="#F06292"/>
</svg>
